<svg width="28" height="28" viewBox="0 0 28 28" fill="none" xmlns="http://www.w3.org/2000/svg">
<path fill-rule="evenodd" clip-rule="evenodd" d="M14.92 5C14.92 4.44772 14.4723 4 13.92 4H12.92C12.3677 4 11.92 4.44771 11.92 5V5.77949C10.7266 4.77762 8.62432 4.50079 6.4979 4.22079C6.35768 4.20232 6.21736 4.18384 6.07719 4.16514C5.46854 4.08395 4.91521 4.55807 5.01081 5.16462C5.68562 9.44572 9.94709 12.0375 11.92 10.6018V14C11.92 14.5523 11.4723 15 10.92 15H8.08709H6.27181C5.62402 15 5.14718 15.6065 5.30006 16.236L5.72846 18L7.24292 24.236C7.3518 24.6843 7.75329 25 8.21467 25H18.7851C19.2465 25 19.648 24.6843 19.7569 24.236L21.2713 18L21.6997 16.236C21.8526 15.6065 21.3758 15 20.728 15H18.9127H15.92C15.3677 15 14.92 14.5523 14.92 14V12.5403C16.8551 14.1083 21.2251 11.5045 21.9092 7.16462C22.0048 6.55807 21.4515 6.08395 20.8428 6.16514C20.7026 6.18384 20.5623 6.20232 20.4221 6.22079C18.2473 6.50716 16.0978 6.79022 14.92 7.84898V5ZM10.5733 22C10.1119 22 9.71043 21.6843 9.60155 21.236L9.11584 19.236C8.96296 18.6065 9.4398 18 10.0876 18H16.9122C17.56 18 18.0368 18.6065 17.8839 19.236L17.3982 21.236C17.2893 21.6843 16.8879 22 16.4265 22H10.5733Z" fill="#D9D9D9"/>
</svg>
