<svg width="28" height="28" viewBox="0 0 28 28" fill="none" xmlns="http://www.w3.org/2000/svg">
<path fill-rule="evenodd" clip-rule="evenodd" d="M15.0002 5C15.0002 4.44772 14.5525 4 14.0002 4C13.4479 4 13.0002 4.44771 13.0002 5V5.84914C11.8224 4.79024 9.6728 4.50718 7.4979 4.22079C7.35768 4.20232 7.21736 4.18384 7.07719 4.16514C6.46854 4.08395 5.91521 4.55807 6.01081 5.16462C6.69491 9.50467 11.0651 12.1085 13.0002 10.5402V13C13.0002 14.1046 12.1047 15 11.0002 15H8.05176C7.00136 15 6.22327 15.976 6.45732 17L7.93061 23.4456C8.13848 24.3551 8.94746 25 9.88033 25H18.12C19.0529 25 19.8619 24.3551 20.0697 23.4457L21.543 17C21.7771 15.976 20.999 15 19.9486 15H17.0002C15.8956 15 15.0002 14.1046 15.0002 13V12.6019C16.9731 14.0374 21.2345 11.4456 21.9093 7.16462C22.0049 6.55807 21.4515 6.08395 20.8429 6.16514C20.7027 6.18384 20.5624 6.20232 20.4222 6.22079C18.2958 6.50079 16.1936 6.77761 15.0002 7.7794V5ZM11.4748 23C10.5419 23 9.73292 22.3551 9.52505 21.4457L9.06791 19.4456C8.7817 18.1935 9.73317 17 11.0176 17H16.9827C18.2672 17 19.2187 18.1935 18.9325 19.4457L18.4753 21.4457C18.2674 22.3551 17.4585 23 16.5256 23H11.4748Z" fill="#D9D9D9"/>
</svg>
