<svg width="264" height="546" viewBox="0 0 264 546" fill="none" xmlns="http://www.w3.org/2000/svg">
<path d="M47.0588 545.882C47.0588 545.882 47.0588 542.092 47.0588 534.51V508.235V481.961V470.588H58.4314H84.7059H110.98H122.353C122.353 470.588 122.353 474.379 122.353 481.961V508.235V534.51V545.882C122.353 545.882 118.562 545.882 110.98 545.882H84.7059H58.4314H47.0588ZM94.1177 545.882C94.1177 545.882 94.1177 542.092 94.1177 534.51V508.235V481.961V470.588H105.49H131.765H158.039H169.412C169.412 470.588 169.412 474.379 169.412 481.961V508.235V534.51V545.882C169.412 545.882 165.621 545.882 158.039 545.882H131.765H105.49H94.1177ZM141.176 545.882C141.176 545.882 141.176 542.092 141.176 534.51V508.235V481.961V470.588H152.549H178.824H205.098H216.471C216.471 470.588 216.471 474.379 216.471 481.961V508.235V534.51V545.882C216.471 545.882 212.68 545.882 205.098 545.882H178.824H152.549H141.176ZM0 498.824C0 498.824 0 495.033 0 487.451V461.176V434.902V423.529H11.3726H37.6471H63.9216H75.2941C75.2941 423.529 75.2941 427.32 75.2941 434.902V461.176V487.451V498.824C75.2941 498.824 71.5033 498.824 63.9216 498.824H37.6471H11.3726H0ZM188.235 498.824C188.235 498.824 188.235 495.033 188.235 487.451V461.176V434.902V423.529H199.608H225.882H252.157H263.529C263.529 423.529 263.529 427.32 263.529 434.902V461.176V487.451V498.824C263.529 498.824 259.739 498.824 252.157 498.824H225.882H199.608H188.235ZM0 451.765C0 451.765 0 447.974 0 440.392V414.118V387.843V376.471H11.3726H37.6471H63.9216H75.2941C75.2941 376.471 75.2941 380.261 75.2941 387.843V414.118V440.392V451.765C75.2941 451.765 71.5033 451.765 63.9216 451.765H37.6471H11.3726H0ZM188.235 451.765C188.235 451.765 188.235 447.974 188.235 440.392V414.118V387.843V376.471H199.608H225.882H252.157H263.529C263.529 376.471 263.529 380.261 263.529 387.843V414.118V440.392V451.765C263.529 451.765 259.739 451.765 252.157 451.765H225.882H199.608H188.235ZM0 404.706C0 404.706 0 400.915 0 393.333V367.059V340.784V329.412H11.3726H37.6471H63.9216H75.2941C75.2941 329.412 75.2941 333.203 75.2941 340.784V367.059V393.333V404.706C75.2941 404.706 71.5033 404.706 63.9216 404.706H37.6471H11.3726H0ZM188.235 404.706C188.235 404.706 188.235 400.915 188.235 393.333V367.059V340.784V329.412H199.608H225.882H252.157H263.529C263.529 329.412 263.529 333.203 263.529 340.784V367.059V393.333V404.706C263.529 404.706 259.739 404.706 252.157 404.706H225.882H199.608H188.235ZM141.176 357.647C141.176 357.647 141.176 353.856 141.176 346.275V320V293.725V282.353H152.549H178.824H205.098H216.471C216.471 282.353 216.471 286.144 216.471 293.725V320V346.275V357.647C216.471 357.647 212.68 357.647 205.098 357.647H178.824H152.549H141.176ZM94.1177 310.588C94.1177 310.588 94.1177 306.797 94.1177 299.216V272.941V246.667V235.294H105.49H131.765H158.039H169.412C169.412 235.294 169.412 239.085 169.412 246.667V272.941V299.216V310.588C169.412 310.588 165.621 310.588 158.039 310.588H131.765H105.49H94.1177ZM47.0588 263.529C47.0588 263.529 47.0588 259.739 47.0588 252.157V225.882V199.608V188.235H58.4314H84.7059H110.98H122.353C122.353 188.235 122.353 192.026 122.353 199.608V225.882V252.157V263.529C122.353 263.529 118.562 263.529 110.98 263.529H84.7059H58.4314H47.0588ZM0 216.471C0 216.471 0 212.68 0 205.098V178.824V152.549V141.176H11.3726H37.6471H63.9216H75.2941C75.2941 141.176 75.2941 144.967 75.2941 152.549V178.824V205.098V216.471C75.2941 216.471 71.5033 216.471 63.9216 216.471H37.6471H11.3726H0ZM0 169.412C0 169.412 0 165.621 0 158.039V131.765V105.49V94.1176H11.3726H37.6471H63.9216H75.2941C75.2941 94.1176 75.2941 97.9085 75.2941 105.49V131.765V158.039V169.412C75.2941 169.412 71.5033 169.412 63.9216 169.412H37.6471H11.3726H0ZM188.235 169.412C188.235 169.412 188.235 165.621 188.235 158.039V131.765V105.49V94.1176H199.608H225.882H252.157H263.529C263.529 94.1176 263.529 97.9085 263.529 105.49V131.765V158.039V169.412C263.529 169.412 259.739 169.412 252.157 169.412H225.882H199.608H188.235ZM0 122.353C0 122.353 0 118.562 0 110.98V84.7059V58.4314V47.0588H11.3726H37.6471H63.9216H75.2941C75.2941 47.0588 75.2941 50.8497 75.2941 58.4314V84.7059V110.98V122.353C75.2941 122.353 71.5033 122.353 63.9216 122.353H37.6471H11.3726H0ZM188.235 122.353C188.235 122.353 188.235 118.562 188.235 110.98V84.7059V58.4314V47.0588H199.608H225.882H252.157H263.529C263.529 47.0588 263.529 50.8497 263.529 58.4314V84.7059V110.98V122.353C263.529 122.353 259.739 122.353 252.157 122.353H225.882H199.608H188.235ZM47.0588 75.2941C47.0588 75.2941 47.0588 71.5032 47.0588 63.9216V37.647V11.3726V0H58.4314H84.7059H110.98H122.353C122.353 0 122.353 3.79085 122.353 11.3726V37.647V63.9216V75.2941C122.353 75.2941 118.562 75.2941 110.98 75.2941H84.7059H58.4314H47.0588ZM94.1177 75.2941C94.1177 75.2941 94.1177 71.5032 94.1177 63.9216V37.647V11.3726V0H105.49H131.765H158.039H169.412C169.412 0 169.412 3.79085 169.412 11.3726V37.647V63.9216V75.2941C169.412 75.2941 165.621 75.2941 158.039 75.2941H131.765H105.49H94.1177ZM141.176 75.2941C141.176 75.2941 141.176 71.5032 141.176 63.9216V37.647V11.3726V0H152.549H178.824H205.098H216.471C216.471 0 216.471 3.79085 216.471 11.3726V37.647V63.9216V75.2941C216.471 75.2941 212.68 75.2941 205.098 75.2941H178.824H152.549H141.176Z" fill="#1E1E1E"/>
</svg>
