<svg width="22" height="22" viewBox="0 0 22 22" fill="none" xmlns="http://www.w3.org/2000/svg">
<path fill-rule="evenodd" clip-rule="evenodd" d="M13.2 2C13.2 0.895431 12.3046 0 11.2 0H10.8C9.69546 0 8.80003 0.89543 8.80003 2V6.79997C8.80003 7.90454 7.90459 8.79997 6.80002 8.79997H2C0.895431 8.79997 0 9.6954 0 10.8V11.2C0 12.3045 0.895432 13.2 2 13.2H6.80003C7.9046 13.2 8.80003 14.0954 8.80003 15.2V20C8.80003 21.1046 9.69546 22 10.8 22H11.2C12.3046 22 13.2 21.1046 13.2 20V15.2C13.2 14.0954 14.0955 13.2 15.2 13.2H20C21.1046 13.2 22 12.3045 22 11.2V10.8C22 9.6954 21.1046 8.79997 20 8.79997H15.2C14.0955 8.79997 13.2 7.90454 13.2 6.79998V2Z" fill="#F8F8F8"/>
</svg>
