<svg width="21" height="21" viewBox="0 0 21 21" fill="none" xmlns="http://www.w3.org/2000/svg">
<path d="M0 12.6C0 12.6 0 12.39 0 11.97V10.5V9.03875V8.4H0.63H2.1H3.56125H4.2C4.2 8.4 4.2 8.61292 4.2 9.03875V8.4H4.83H6.3H7.76125H8.4C8.4 8.4 8.4 8.61292 8.4 9.03875V8.4C8.4 8.4 8.4 8.19 8.4 7.77V6.3V4.83875V4.2C8.4 4.2 8.4 3.99 8.4 3.57V2.1V0.638753V0H9.03H10.5H11.9613H12.6C12.6 0 12.6 0.212918 12.6 0.638753V2.1V3.57V4.2C12.6 4.2 12.3871 4.2 11.9613 4.2H12.6C12.6 4.2 12.6 4.41292 12.6 4.83875V6.3V7.77V8.4C12.6 8.4 12.3871 8.4 11.9613 8.4H12.6C12.6 8.4 12.6 8.61292 12.6 9.03875V8.4H13.23H14.7H16.1613H16.8C16.8 8.4 16.8 8.61292 16.8 9.03875V8.4H17.43H18.9H20.3613H21C21 8.4 21 8.61292 21 9.03875V10.5V11.97V12.6C21 12.6 20.7871 12.6 20.3613 12.6H18.9H17.43H16.8C16.8 12.6 16.8 12.39 16.8 11.97V12.6C16.8 12.6 16.5871 12.6 16.1613 12.6H14.7H13.23H12.6C12.6 12.6 12.6 12.39 12.6 11.97V12.6C12.6 12.6 12.3871 12.6 11.9613 12.6H12.6C12.6 12.6 12.6 12.8129 12.6 13.2387V14.7V16.17V16.8C12.6 16.8 12.3871 16.8 11.9613 16.8H12.6C12.6 16.8 12.6 17.0129 12.6 17.4388V18.9V20.37V21C12.6 21 12.3871 21 11.9613 21H10.5H9.03H8.4C8.4 21 8.4 20.79 8.4 20.37V18.9V17.4388V16.8C8.4 16.8 8.4 16.59 8.4 16.17V14.7V13.2387V12.6C8.4 12.6 8.4 12.39 8.4 11.97V12.6C8.4 12.6 8.18708 12.6 7.76125 12.6H6.3H4.83H4.2C4.2 12.6 4.2 12.39 4.2 11.97V12.6C4.2 12.6 3.98708 12.6 3.56125 12.6H2.1H0.63H0Z" fill="white"/>
</svg>
