<svg width="28" height="28" viewBox="0 0 28 28" fill="none" xmlns="http://www.w3.org/2000/svg">
<path fill-rule="evenodd" clip-rule="evenodd" d="M21 7C21 6.44772 20.5523 6 20 6H10C9.44772 6 9 6.44772 9 7V8C9 8.55228 9.44772 9 10 9V9C10.5523 9 11 9.44772 11 10V11C11 11.5523 10.5523 12 10 12V12C9.44772 12 9 12.4477 9 13V14C9 14.5523 9.44772 15 10 15V15C10.5523 15 11 15.4477 11 16V17C11 17.5523 10.5523 18 10 18V18C9.44772 18 9 18.4477 9 19V20C9 20.5523 9.44772 21 10 21H20C20.5523 21 21 20.5523 21 20V7ZM5 18C5.55228 18 6 18.4477 6 19V21V23C6 23.5523 6.44772 24 7 24H9H21H23C23.5523 24 24 23.5523 24 23V21V6V4C24 3.44772 23.5523 3 23 3H21H9H7C6.44772 3 6 3.44772 6 4V6V8C6 8.55228 5.55228 9 5 9V9C4.44772 9 4 9.44772 4 10V11C4 11.5523 4.44772 12 5 12V12C5.55228 12 6 12.4477 6 13V14C6 14.5523 5.55228 15 5 15V15C4.44772 15 4 15.4477 4 16V17C4 17.5523 4.44772 18 5 18V18Z" fill="#D9D9D9"/>
</svg>
