<svg width="28" height="28" viewBox="0 0 28 28" fill="none" xmlns="http://www.w3.org/2000/svg">
<path fill-rule="evenodd" clip-rule="evenodd" d="M22 8C22 6.89543 21.1046 6 20 6H10C8.89543 6 8 6.89543 8 8V8.5C8 9.32843 8.67157 10 9.5 10V10C10.3284 10 11 10.6716 11 11.5V11.5C11 12.3284 10.3284 13 9.5 13V13C8.67157 13 8 13.6716 8 14.5V14.5C8 15.3284 8.67157 16 9.5 16V16C10.3284 16 11 16.6716 11 17.5V17.5C11 18.3284 10.3284 19 9.5 19V19C8.67157 19 8 19.6716 8 20.5V21C8 22.1046 8.89543 23 10 23H20C21.1046 23 22 22.1046 22 21V8ZM5 19C5.55228 19 6 19.4477 6 20V23V23C6 24.1046 6.89543 25 8 25V25H22V25C23.1046 25 24 24.1046 24 23V23V6V6C24 4.89543 23.1046 4 22 4V4H8V4C6.89543 4 6 4.89543 6 6V6V9C6 9.55228 5.55228 10 5 10V10C4.44772 10 4 10.4477 4 11V12C4 12.5523 4.44772 13 5 13V13C5.55228 13 6 13.4477 6 14V15C6 15.5523 5.55228 16 5 16V16C4.44772 16 4 16.4477 4 17V18C4 18.5523 4.44772 19 5 19V19Z" fill="#D9D9D9"/>
</svg>
