<svg width="29" height="28" viewBox="0 0 29 28" fill="none" xmlns="http://www.w3.org/2000/svg">
<path fill-rule="evenodd" clip-rule="evenodd" d="M5.5 6C4.67157 6 4 6.67157 4 7.5C4 8.32843 4.67157 9 5.5 9C6.32843 9 7 8.32843 7 7.5C7 6.67157 6.32843 6 5.5 6ZM5.5 13C4.67157 13 4 13.6716 4 14.5C4 15.3284 4.67157 16 5.5 16C6.32843 16 7 15.3284 7 14.5C7 13.6716 6.32843 13 5.5 13ZM4 21.5C4 20.6716 4.67157 20 5.5 20C6.32843 20 7 20.6716 7 21.5C7 22.3284 6.32843 23 5.5 23C4.67157 23 4 22.3284 4 21.5ZM12 6C11.1716 6 10.5 6.67157 10.5 7.5C10.5 8.32843 11.1716 9 12 9H24C24.8284 9 25.5 8.32843 25.5 7.5C25.5 6.67157 24.8284 6 24 6H12ZM10.5 14.5C10.5 13.6716 11.1716 13 12 13H21C21.8284 13 22.5 13.6716 22.5 14.5C22.5 15.3284 21.8284 16 21 16H12C11.1716 16 10.5 15.3284 10.5 14.5ZM12 20C11.1716 20 10.5 20.6716 10.5 21.5C10.5 22.3284 11.1716 23 12 23H24C24.8284 23 25.5 22.3284 25.5 21.5C25.5 20.6716 24.8284 20 24 20H12Z" fill="#D9D9D9"/>
</svg>
