<svg width="29" height="28" viewBox="0 0 29 28" fill="none" xmlns="http://www.w3.org/2000/svg">
<path fill-rule="evenodd" clip-rule="evenodd" d="M4.5 5C3.94772 5 3.5 5.44772 3.5 6V7C3.5 7.55228 3.94772 8 4.5 8H5.5C6.05228 8 6.5 7.55228 6.5 7V6C6.5 5.44772 6.05228 5 5.5 5H4.5ZM4.5 12C3.94772 12 3.5 12.4477 3.5 13V14C3.5 14.5523 3.94772 15 4.5 15H5.5C6.05228 15 6.5 14.5523 6.5 14V13C6.5 12.4477 6.05228 12 5.5 12H4.5ZM3.5 20C3.5 19.4477 3.94772 19 4.5 19H5.5C6.05228 19 6.5 19.4477 6.5 20V21C6.5 21.5523 6.05228 22 5.5 22H4.5C3.94772 22 3.5 21.5523 3.5 21V20ZM11.5 5C10.9477 5 10.5 5.44772 10.5 6V7C10.5 7.55228 10.9477 8 11.5 8H24.5C25.0523 8 25.5 7.55228 25.5 7V6C25.5 5.44772 25.0523 5 24.5 5H11.5ZM10.5 13C10.5 12.4477 10.9477 12 11.5 12H21.5C22.0523 12 22.5 12.4477 22.5 13V14C22.5 14.5523 22.0523 15 21.5 15H11.5C10.9477 15 10.5 14.5523 10.5 14V13ZM11.5 19C10.9477 19 10.5 19.4477 10.5 20V21C10.5 21.5523 10.9477 22 11.5 22H24.5C25.0523 22 25.5 21.5523 25.5 21V20C25.5 19.4477 25.0523 19 24.5 19H11.5Z" fill="#D9D9D9"/>
</svg>
